<?xml version="1.0" standalone="no"?>
<!DOCTYPE svg PUBLIC "-//W3C//DTD SVG 20010904//EN"
 "http://www.w3.org/TR/2001/REC-SVG-20010904/DTD/svg10.dtd">
<svg version="1.0" xmlns="http://www.w3.org/2000/svg"
 width="700.000000pt" height="700.000000pt" viewBox="0 0 700.000000 700.000000"
 preserveAspectRatio="xMidYMid meet">
<metadata>
Created by potrace 1.14, written by Peter Selinger 2001-2017
</metadata>
<g transform="translate(0.000000,700.000000) scale(0.100000,-0.100000)"
fill="#000000" stroke="none">
<path d="M5393 6301 c-275 -271 -452 -574 -542 -924 -27 -101 -62 -277 -75
-367 -10 -69 -25 -196 -31 -250 -3 -30 -8 -77 -12 -105 -3 -27 -7 -66 -8 -85
-3 -39 -14 -166 -20 -220 -2 -19 -7 -64 -11 -100 -3 -36 -8 -72 -9 -81 -2 -9
-6 -40 -10 -70 -3 -30 -10 -76 -15 -104 -5 -27 -12 -66 -15 -85 -11 -69 -58
-256 -82 -323 -56 -160 -132 -305 -226 -427 -62 -81 -218 -233 -228 -223 -6 7
-216 300 -601 838 -43 61 -85 119 -93 130 -195 272 -235 330 -235 341 0 18
245 121 330 139 8 2 43 10 77 18 l61 15 153 -217 c85 -119 157 -220 162 -226
4 -5 91 -127 193 -270 256 -360 236 -337 249 -287 4 15 31 91 61 169 32 83 52
148 48 155 -5 7 -42 60 -83 118 -41 58 -135 191 -209 295 -74 105 -150 211
-169 237 l-34 48 78 -5 c110 -7 231 -21 308 -35 28 -5 66 -12 85 -15 19 -3 47
-8 63 -11 26 -5 27 -4 28 43 2 75 4 103 26 300 l5 51 -53 10 c-75 15 -128 23
-169 28 -19 2 -44 6 -55 8 -86 20 -483 28 -623 13 -429 -46 -889 -272 -1198
-589 -272 -279 -422 -600 -504 -1078 -41 -238 -43 -282 -15 -286 11 -2 38 -6
60 -9 22 -3 56 -10 75 -15 226 -58 229 -58 230 -1 0 45 50 336 71 416 57 221
138 406 237 544 69 96 219 253 238 249 7 -2 128 -167 270 -368 234 -332 308
-437 577 -817 l86 -122 -72 -34 c-135 -65 -379 -139 -397 -120 -5 4 -81 112
-171 238 -89 127 -169 240 -178 251 -9 12 -22 30 -29 40 -7 11 -43 62 -80 114
-37 52 -74 105 -82 117 -8 12 -53 74 -99 139 l-84 117 -13 -34 c-7 -19 -37
-98 -67 -176 l-55 -142 244 -341 c134 -187 244 -343 244 -347 0 -10 -207 8
-360 32 -103 17 -584 117 -690 145 -19 5 -48 11 -65 14 -16 2 -68 12 -115 21
-149 28 -281 46 -434 61 -57 5 -343 5 -387 0 -20 -3 -59 -7 -85 -10 -191 -23
-417 -92 -601 -184 l-72 -36 86 -165 c47 -91 87 -168 89 -170 2 -2 43 14 91
36 83 39 209 82 279 97 33 7 27 14 108 -99 8 -11 42 -58 75 -105 33 -47 66
-93 73 -102 19 -26 36 -49 303 -426 134 -189 247 -342 252 -341 7 2 133 323
133 340 0 4 -89 130 -197 280 -108 151 -206 288 -217 304 -27 39 -72 100 -109
148 -16 21 -26 41 -23 44 9 9 205 1 286 -12 14 -2 50 -7 80 -10 30 -4 87 -13
125 -20 39 -8 84 -16 100 -19 17 -2 53 -9 80 -16 28 -6 61 -14 75 -16 14 -3
84 -18 155 -34 72 -16 144 -31 161 -34 17 -3 96 -19 175 -35 158 -33 238 -47
314 -56 28 -4 61 -8 74 -10 157 -26 461 -24 646 4 204 31 487 129 650 225 391
231 626 473 784 808 72 150 147 379 167 506 3 20 8 40 10 43 4 7 8 34 24 144
6 44 14 94 16 110 3 17 7 50 10 75 2 25 6 59 8 75 3 17 7 59 11 95 3 36 8 81
10 100 3 19 7 64 10 100 10 120 15 185 20 220 2 19 7 60 10 90 17 152 21 179
41 280 8 41 16 85 19 98 2 13 7 32 10 42 3 10 8 27 10 38 11 61 74 223 125
327 71 143 158 266 277 394 48 52 88 98 88 102 0 4 -59 68 -132 142 l-131 136
-49 -48z"/>
<path d="M5440 5559 c-18 -46 -48 -123 -67 -172 -19 -49 -31 -93 -27 -100 5
-6 124 -175 266 -373 142 -199 258 -364 258 -366 0 -3 -24 -4 -52 -2 -185 12
-258 20 -433 50 -49 8 -102 17 -117 19 -25 5 -26 2 -34 -48 -4 -28 -8 -65 -9
-82 -2 -16 -6 -59 -9 -95 -4 -36 -9 -86 -12 -112 -2 -27 -3 -48 -1 -48 3 0 29
-5 58 -10 143 -27 242 -42 387 -56 144 -15 485 -8 552 11 8 3 31 7 50 9 19 3
44 7 55 10 11 2 43 9 70 16 90 20 258 81 362 130 l101 49 -84 160 c-46 89 -84
165 -84 171 0 16 -13 12 -76 -19 -112 -54 -346 -133 -358 -120 -1 2 -35 49
-74 104 -201 281 -452 631 -459 640 -5 6 -53 73 -107 150 -54 77 -104 146
-111 154 -11 11 -18 -2 -45 -70z"/>
<path d="M1899 2229 c-1 -5 -7 -61 -14 -124 -26 -238 -95 -484 -186 -667 -83
-168 -160 -277 -292 -415 -44 -45 -77 -87 -75 -92 5 -15 249 -261 258 -261 15
0 179 182 256 283 76 100 178 267 215 354 11 26 26 61 34 78 60 135 130 404
160 615 9 63 18 122 21 131 6 22 -3 25 -180 60 -82 16 -160 32 -173 35 -13 4
-23 5 -24 3z"/>
</g>
</svg>
